<svg width="120" height="120" viewBox="0 0 120 120" fill="none" xmlns="http://www.w3.org/2000/svg">
  <!-- Background circle -->
  <circle cx="60" cy="60" r="60" fill="#f5f2ed"/>
  <circle cx="60" cy="60" r="55" fill="#faf9f7" stroke="#e0d5c7" stroke-width="2"/>
  
  <!-- Bible book -->
  <rect x="35" y="40" width="50" height="35" rx="3" fill="#c89c3f"/>
  <rect x="37" y="42" width="46" height="31" rx="2" fill="#e6c875"/>
  
  <!-- Pages -->
  <line x1="42" y1="48" x2="78" y2="48" stroke="#c89c3f" stroke-width="1"/>
  <line x1="42" y1="52" x2="75" y2="52" stroke="#c89c3f" stroke-width="1"/>
  <line x1="42" y1="56" x2="78" y2="56" stroke="#c89c3f" stroke-width="1"/>
  <line x1="42" y1="60" x2="72" y2="60" stroke="#c89c3f" stroke-width="1"/>
  <line x1="42" y1="64" x2="78" y2="64" stroke="#c89c3f" stroke-width="1"/>
  <line x1="42" y1="68" x2="70" y2="68" stroke="#c89c3f" stroke-width="1"/>
  
  <!-- Cross symbol -->
  <rect x="58" y="20" width="4" height="15" rx="2" fill="#c89c3f"/>
  <rect x="52" y="25" width="16" height="4" rx="2" fill="#c89c3f"/>
  
  <!-- Heart symbol -->
  <path d="M60 85 C55 80, 45 80, 45 88 C45 95, 60 105, 60 105 C60 105, 75 95, 75 88 C75 80, 65 80, 60 85 Z" fill="#16a34a"/>
</svg>